<?xml version="1.0" encoding="UTF-8" standalone="no"?>
<!-- Created with Inkscape (http://www.inkscape.org/) -->

<svg
   width="65.713768mm"
   height="39.520683mm"
   viewBox="0 0 65.713768 39.520683"
   version="1.1"
   id="svg1"
   inkscape:version="1.3 (0e150ed, 2023-07-21)"
   sodipodi:docname="gado_draft_hands.svg"
   xml:space="preserve"
   inkscape:export-filename="../Documents/Programming/hoga/hoga/static/images/gado_draft_hands.png"
   inkscape:export-xdpi="96"
   inkscape:export-ydpi="96"
   xmlns:inkscape="http://www.inkscape.org/namespaces/inkscape"
   xmlns:sodipodi="http://sodipodi.sourceforge.net/DTD/sodipodi-0.dtd"
   xmlns="http://www.w3.org/2000/svg"
   xmlns:svg="http://www.w3.org/2000/svg"><sodipodi:namedview
     id="namedview1"
     pagecolor="#ffffff"
     bordercolor="#999999"
     borderopacity="1"
     inkscape:showpageshadow="2"
     inkscape:pageopacity="0"
     inkscape:pagecheckerboard="false"
     inkscape:deskcolor="#d1d1d1"
     inkscape:document-units="mm"
     showguides="true"
     inkscape:zoom="7.2128375"
     inkscape:cx="110.49743"
     inkscape:cy="123.11382"
     inkscape:window-width="1920"
     inkscape:window-height="974"
     inkscape:window-x="1024"
     inkscape:window-y="25"
     inkscape:window-maximized="1"
     inkscape:current-layer="layer2"><inkscape:page
       x="0"
       y="0"
       width="65.713768"
       height="39.520683"
       id="page2"
       margin="0"
       bleed="0" /></sodipodi:namedview><defs
     id="defs1"><inkscape:path-effect
       effect="mirror_symmetry"
       start_point="96.968804,90.707261"
       end_point="96.968804,111.63688"
       center_point="96.968804,101.17207"
       id="path-effect39"
       is_visible="true"
       lpeversion="1.2"
       lpesatellites=""
       mode="free"
       discard_orig_path="false"
       fuse_paths="false"
       oposite_fuse="false"
       split_items="false"
       split_open="false"
       link_styles="false" /><linearGradient
       id="swatch15"
       inkscape:swatch="solid"><stop
         style="stop-color:#000000;stop-opacity:1;"
         offset="0"
         id="stop15" /></linearGradient><inkscape:path-effect
       effect="mirror_symmetry"
       start_point="96.968804,90.707261"
       end_point="96.968804,111.63688"
       center_point="96.968804,101.17207"
       id="path-effect39-1"
       is_visible="true"
       lpeversion="1.2"
       lpesatellites=""
       mode="free"
       discard_orig_path="false"
       fuse_paths="false"
       oposite_fuse="false"
       split_items="false"
       split_open="false"
       link_styles="false" /></defs><g
     id="layer2"
     inkscape:label="Layer 2"
     inkscape:path-effect="#path-effect39"
     transform="matrix(0.95332922,0,0,0.95332922,-41.269273,-67.646412)"
     style="display:inline"><path
       style="fill:none;stroke:#000000;stroke-width:1.665;stroke-dasharray:none;stroke-opacity:1"
       d="m 87.747005,94.113469 -6.032296,9.846981 c 1.981678,1.58758 3.963356,1.83438 5.945034,0 l 3.419959,-4.106715 -0.05669,5.648625 -2.662453,6.07866 h 5.771486 l 2.717587,-5.7182 m 9.343678,-11.749351 6.03229,9.846981 c -1.98168,1.58758 -3.96335,1.83438 -5.94503,0 l -3.41996,-4.106715 0.0567,5.648625 2.66245,6.07866 h -5.771484 l -2.717587,-5.7182"
       id="path15"
       sodipodi:nodetypes="cccccccc"
       transform="matrix(0.93289813,0,0,0.93289813,6.5055274,7.5431589)"
       inkscape:original-d="m 87.747005,94.113469 -6.032296,9.846981 c 1.981678,1.58758 3.963356,1.83438 5.945034,0 l 3.419959,-4.106715 -0.05669,5.648625 -2.662453,6.07866 h 5.771486 l 2.717587,-5.7182" /><path
       style="display:inline;fill:none;stroke:#000000;stroke-width:1.665;stroke-dasharray:none;stroke-opacity:1"
       d="m 98.056345,75.706725 -2.556516,0.008 -8.774526,3.23287 -2.79627,10.67541 3.788594,5.28385 5.281355,1.88195 4.227712,-0.49932 m -1.345431,-20.58276 2.556516,0.008 8.774531,3.23287 2.79627,10.67541 -3.7886,5.28385 -5.28135,1.88195 -4.227716,-0.49932"
       id="path40"
       inkscape:original-d="m 98.056345,75.706725 -2.556516,0.008 -8.774526,3.23287 -2.79627,10.67541 3.788594,5.28385 5.281355,1.88195 4.227712,-0.49932"
       sodipodi:nodetypes="ccccccc" /><path
       style="display:inline;fill:none;stroke:#000000;stroke-width:1.665"
       d="m 86.785589,78.554445 c -0.782465,-2.058326 -1.27125,-4.171717 -0.989521,-6.42958 3.110346,1.22177 6.002757,3.53321 9.335551,3.64274 m 12.020401,2.78684 c 0.78246,-2.058326 1.27125,-4.171717 0.98952,-6.42958 -3.11035,1.22177 -6.00276,3.53321 -9.335551,3.64274"
       id="path3"
       inkscape:original-d="m 86.785589,78.554445 c -0.782465,-2.058326 -1.27125,-4.171717 -0.989521,-6.42958 3.110346,1.22177 6.002757,3.53321 9.335551,3.64274"
       sodipodi:nodetypes="ccc" /><path
       style="display:inline;fill:none;stroke:#000000;stroke-width:1.665"
       d="m 84.650351,89.317785 c 3.337438,-0.618602 6.576657,-0.844328 9.371292,0.70828 l 0.324548,-5.77009 c -1.424893,-2.46446 -6.238067,0.1535 -9.357101,0.23025 m 24.29817,4.83156 c -3.33744,-0.618602 -6.57666,-0.844328 -9.371295,0.70828 l -0.324548,-5.77009 c 1.424893,-2.46446 6.238063,0.1535 9.357103,0.23025"
       id="path5"
       inkscape:original-d="m 84.650351,89.317785 c 3.337438,-0.618602 6.576657,-0.844328 9.371292,0.70828 l 0.324548,-5.77009 c -1.424893,-2.46446 -6.238067,0.1535 -9.357101,0.23025"
       sodipodi:nodetypes="cccc" /><path
       style="display:inline;fill:none;stroke:#000000;stroke-width:1.665"
       d="m 90.190602,83.186395 c 0.132411,2.453381 0.128603,4.634324 -0.250304,6.06507 m 13.806712,-6.06507 c -0.13241,2.453381 -0.12861,4.634324 0.2503,6.06507"
       id="path6"
       inkscape:original-d="m 90.190602,83.186395 c 0.132411,2.453381 0.128603,4.634324 -0.250304,6.06507"
       sodipodi:nodetypes="cc" /><path
       style="display:inline;fill:none;stroke:#000000;stroke-width:1.665"
       d="m 91.710952,92.541915 -9.223219,1.73404 m 19.738927,-1.73404 9.22322,1.73404"
       id="path7"
       inkscape:original-d="m 91.710952,92.541915 -9.223219,1.73404" /><path
       style="display:inline;fill:none;stroke:#000000;stroke-width:1.665;stroke-dasharray:none;stroke-opacity:1"
       d="m 97.125986,96.095805 c 0.04418,-3.00426 0,-3.00426 0,-3.00426 m -0.314364,3.00426 c -0.04418,-3.00426 0,-3.00426 0,-3.00426"
       id="path39-4"
       inkscape:original-d="m 97.125986,96.095805 c 0.04418,-3.00426 0,-3.00426 0,-3.00426" /><path
       style="fill:none;stroke:#000000;stroke-width:1.665"
       d="m 88.756493,78.274851 -0.133673,-1.557629 1.406801,0.878631 m 15.151499,0.678998 0.13367,-1.557629 -1.4068,0.878631"
       id="path8"
       inkscape:original-d="m 88.756493,78.274851 -0.133673,-1.557629 1.406801,0.878631"
       sodipodi:nodetypes="ccc" /></g><g
     id="layer2-8"
     inkscape:label="Layer 2"
     inkscape:path-effect="#path-effect39-1"
     transform="matrix(0.95332922,0,0,0.95332922,-76.019479,-67.849937)"
     style="display:inline"><path
       style="fill:none;stroke:#000000;stroke-width:1.665;stroke-dasharray:none;stroke-opacity:1"
       d="m 87.119094,89.080583 -6.348762,14.879867 h 6.889411 l 3.363273,-9.271682 v 10.813592 l -2.662453,6.07866 h 5.771486 l 2.717587,-5.7182 m 9.971584,-16.782237 6.34876,14.879867 h -6.88941 l -3.36328,-9.271682 v 10.813592 l 2.66246,6.07866 h -5.771488 l -2.717587,-5.7182"
       id="path15-6"
       sodipodi:nodetypes="cccccccc"
       transform="matrix(0.93289813,0,0,0.93289813,6.5055274,7.5431589)"
       inkscape:original-d="m 87.119094,89.080583 -6.348762,14.879867 h 6.889411 l 3.363273,-9.271682 v 10.813592 l -2.662453,6.07866 h 5.771486 l 2.717587,-5.7182" /><path
       style="fill:none;stroke:#000000;stroke-width:1.665;stroke-dasharray:none;stroke-opacity:1"
       d="m 97.108427,93.711527 c 0.04418,-3.004264 0,-3.004264 0,-3.004264 m -0.279246,3.004264 c -0.04418,-3.004264 0,-3.004264 0,-3.004264"
       id="path39"
       inkscape:original-d="m 97.108427,93.711527 c 0.04418,-3.004264 0,-3.004264 0,-3.004264" /><path
       style="fill:none;stroke:#000000;stroke-width:1.665;stroke-dasharray:none;stroke-opacity:1"
       d="M 97.422431,73.838642 95.344175,72.415574 H 80.573556 v 20.017605 h 5.606367 V 78.561014 h 1.581283 v 11.572115 l 5.170165,5.366523 4.225761,-1.665606 m -0.641955,-19.995404 2.078256,-1.423068 h 14.770617 v 20.017605 h -5.60636 V 78.561014 h -1.58129 v 11.572115 l -5.17016,5.366523 -4.225764,-1.665606"
       id="path40-9"
       inkscape:original-d="M 97.422431,73.838642 95.344175,72.415574 H 80.573556 v 20.017605 h 5.606367 V 78.561014 h 1.581283 v 11.572115 l 5.170165,5.366523 4.225761,-1.665606"
       sodipodi:nodetypes="cccccccccc" /><path
       style="fill:none;stroke:#000000;stroke-width:1.665;stroke-dasharray:none;stroke-opacity:1"
       d="m 94.721523,79.443857 c -0.03888,3.976442 -1.277451,6.913153 -4.133959,8.447651 m 8.628521,-8.447651 c 0.03888,3.976442 1.277455,6.913153 4.133955,8.447651"
       id="path41"
       inkscape:original-d="m 94.721523,79.443857 c -0.03888,3.976442 -1.277451,6.913153 -4.133959,8.447651"
       sodipodi:nodetypes="cc" /><path
       style="fill:none;stroke:#000000;stroke-width:1.665"
       d="m 15.922925,22.889204 0.171042,2.576429 1.705508,1.563586 m 0.733096,-4.140015 -0.171042,2.576429 -1.705508,1.563586"
       id="path3-0"
       transform="translate(79.741056,71.583074)"
       inkscape:original-d="m 15.922925,22.889204 0.171042,2.576429 1.705508,1.563586"
       sodipodi:nodetypes="ccc" /></g></svg>
